<svg xmlns="http://www.w3.org/2000/svg" width="122.77" height="47.341" viewBox="0 0 122.77 47.341">
  <g id="Group_41" data-name="Group 41" transform="translate(-3599.026 -104.72)">
    <g id="Group_38" data-name="Group 38" transform="translate(3599.026 104.72)">
      <path id="Path_70" data-name="Path 70" d="M3622.5,104.72a3.2,3.2,0,1,0,3.2,3.2,3.2,3.2,0,0,0-3.2-3.2Zm-1.8,7.1a17.429,17.429,0,0,0-9.491,4.046,1.619,1.619,0,0,0-.621,1.557,2.08,2.08,0,0,0,1.961,1.86h0a2.517,2.517,0,0,0,1.3-.482,13.539,13.539,0,0,1,8.648-3.127c4.724,0,8.728,3.186,8.8,3.238a1.959,1.959,0,0,0,1.147.372,1.985,1.985,0,0,0,1.972-1.955,2.015,2.015,0,0,0-.516-1.367l-.043-.042a17.478,17.478,0,0,0-9.539-4.1l-1.575,1.712a.335.335,0,0,1-.247.108h0a.339.339,0,0,1-.247-.11l-1.542-1.712Zm17.163,12.742c-.045,0-.091,0-.138,0a2,2,0,0,0-1.937,1.971,1.819,1.819,0,0,0,.046.408,13.509,13.509,0,0,1-8.9,15.031,2.051,2.051,0,0,0-1.3,1.891,2.005,2.005,0,0,0,1.971,1.946,1.918,1.918,0,0,0,.633-.106h.134l.077-.077a17.444,17.444,0,0,0,8.144-6.124l-.687-2.121a.336.336,0,0,1,.246-.431l2.23-.5a17.4,17.4,0,0,0,1.6-7.256,17.682,17.682,0,0,0-.27-3.045,1.93,1.93,0,0,0-1.842-1.591Zm-30.7.234a1.949,1.949,0,0,0-1.948,1.807,17.661,17.661,0,0,0-.193,2.595,17.417,17.417,0,0,0,1.6,7.276l2.142.479a.336.336,0,0,1,.246.431l-.666,2.052a17.453,17.453,0,0,0,8.372,6.253,1.938,1.938,0,0,0,.763.158c.544,0,1.51-.245,1.885-1.881a1.81,1.81,0,0,0-1.288-1.987,13.531,13.531,0,0,1-9.109-12.783,13.721,13.721,0,0,1,.171-2.147l.007-.064s.006-.144.006-.219a1.993,1.993,0,0,0-1.993-1.972Zm33.874,11.992a3.2,3.2,0,1,0,3.2,3.2,3.2,3.2,0,0,0-3.2-3.2Zm-36.945,0a3.2,3.2,0,1,0,3.2,3.2,3.2,3.2,0,0,0-3.2-3.2Z" transform="translate(-3599.641 -104.72)" fill="#3965bd"/>
      <g id="Group_35" data-name="Group 35" transform="translate(0 2.264)">
        <path id="Path_71" data-name="Path 71" d="M3616.885,111.077a5.119,5.119,0,0,1-.313-2.972A22.826,22.826,0,0,0,3600.027,137a5.329,5.329,0,0,1,2.741-1.21,19.815,19.815,0,0,1,14.117-24.708Z" transform="translate(-3599.026 -108.098)" fill="#0a254b"/>
        <g id="Group_34" data-name="Group 34" transform="translate(6.389)">
          <path id="Path_72" data-name="Path 72" d="M3655.435,130.312a19.81,19.81,0,0,1-.779,5.457,5.326,5.326,0,0,1,2.761,1.133,22.809,22.809,0,0,0-16.6-28.808,5.112,5.112,0,0,1-.31,2.974A19.916,19.916,0,0,1,3655.435,130.312Z" transform="translate(-3619.066 -108.094)" fill="#0a254b"/>
          <path id="Path_73" data-name="Path 73" d="M3639.2,161.987a19.851,19.851,0,0,1-28.285.077,5.388,5.388,0,0,1-2.362,1.794,22.766,22.766,0,0,0,32.969-.033A5.388,5.388,0,0,1,3639.2,161.987Z" transform="translate(-3608.548 -125.828)" fill="#0a254b"/>
        </g>
      </g>
      <g id="Group_37" data-name="Group 37" transform="translate(14.541 20.076)">
        <g id="Group_36" data-name="Group 36">
          <path id="Path_74" data-name="Path 74" d="M3625.645,136.369l-.788-.736a.361.361,0,0,0-.509.017l-3.557,3.768a.372.372,0,0,0,0,.49l3.557,3.768a.361.361,0,0,0,.509.017l.788-.736a.361.361,0,0,0,.018-.509l-2.629-2.786,2.629-2.786A.377.377,0,0,0,3625.645,136.369Z" transform="translate(-3620.699 -134.937)" fill="#0a254b"/>
          <path id="Path_75" data-name="Path 75" d="M3642.9,139.418l-3.558-3.768a.36.36,0,0,0-.508-.017l-.789.736a.36.36,0,0,0-.018.508l2.629,2.786-2.629,2.786a.361.361,0,0,0,.018.509l.789.736a.36.36,0,0,0,.508-.017l3.558-3.768A.339.339,0,0,0,3642.9,139.418Z" transform="translate(-3626.369 -134.937)" fill="#0a254b"/>
          <path id="Path_76" data-name="Path 76" d="M3633.818,134.918l-1.052-.263a.36.36,0,0,0-.438.263l-2.173,8.465a.361.361,0,0,0,.263.438l1.052.263a.361.361,0,0,0,.438-.263l2.173-8.464A.375.375,0,0,0,3633.818,134.918Z" transform="translate(-3623.806 -134.643)" fill="#0a254b"/>
        </g>
      </g>
    </g>
    <g id="Group_40" data-name="Group 40" transform="translate(3657.964 115.689)">
      <g id="Group_39" data-name="Group 39">
        <path id="Path_77" data-name="Path 77" d="M3697.08,150.194a10.223,10.223,0,0,1-5.388-1.385,9.436,9.436,0,0,1-3.559-3.831,12.039,12.039,0,0,1-1.263-5.6v-.849a12.6,12.6,0,0,1,1.243-5.692,9.779,9.779,0,0,1,3.427-3.923,8.9,8.9,0,0,1,4.974-1.425,9.627,9.627,0,0,1,4.984,1.193,7.585,7.585,0,0,1,3.043,3.387,12.3,12.3,0,0,1,1.031,5.267v2.912h-13.426l-.04.1a7.877,7.877,0,0,0,.718,3.053,5.032,5.032,0,0,0,1.82,2.1,5.173,5.173,0,0,0,2.881.768,10.191,10.191,0,0,0,3.235-.485,9.931,9.931,0,0,0,2.689-1.375l1.6,3.194a11.09,11.09,0,0,1-3.3,1.84A13.323,13.323,0,0,1,3697.08,150.194Zm-4.852-13.527h8.472v-.526a6.722,6.722,0,0,0-.435-2.517,3.55,3.55,0,0,0-1.355-1.688,4.16,4.16,0,0,0-2.335-.607,3.543,3.543,0,0,0-2.164.687,4.825,4.825,0,0,0-1.486,1.871,9.157,9.157,0,0,0-.758,2.679Z" transform="translate(-3686.87 -123.181)" fill="#0a254b"/>
        <path id="Path_78" data-name="Path 78" d="M3718.725,149.968v-3.114l3.032-.607V131.831l-3.214-.607v-3.134h8.31v18.157l3.013.607v3.114Z" transform="translate(-3697.292 -123.38)" fill="#0a254b"/>
        <path id="Path_79" data-name="Path 79" d="M3741.054,143.033V139.09h10.757v3.943Z" transform="translate(-3704.7 -126.999)" fill="#0a254b"/>
        <path id="Path_80" data-name="Path 80" d="M3771.249,148.041a5.854,5.854,0,0,1-4.347-1.567q-1.556-1.567-1.557-5V129.419h-3.194V125.78h3.194v-4.711h5.075v4.711h4.327v3.639h-4.327V141.47A2.978,2.978,0,0,0,3771,143.5a2.008,2.008,0,0,0,1.567.637,8.827,8.827,0,0,0,1.263-.1q.7-.1,1.123-.2l.525,3.579a16.269,16.269,0,0,1-2.032.445A13.931,13.931,0,0,1,3771.249,148.041Z" transform="translate(-3711.642 -121.069)" fill="#0a254b"/>
      </g>
    </g>
    <circle id="Ellipse_1" data-name="Ellipse 1" cx="3.019" cy="3.019" r="3.019" transform="translate(3681.856 111.575)" fill="#3965bd"/>
  </g>
</svg>
